<?xml version="1.0" encoding="utf-8"?>
<!-- Generator: Adobe Illustrator 22.0.0, SVG Export Plug-In . SVG Version: 6.00 Build 0)  -->
<svg version="1.1" id="Layer_1" xmlns="http://www.w3.org/2000/svg" xmlns:xlink="http://www.w3.org/1999/xlink" x="0px" y="0px"
	 viewBox="0 0 1400 1400" enable-background="new 0 0 1400 1400" xml:space="preserve">
<path fill="#FF0D47" d="M1199.5,175.6c-57.9-55.1-149.5-52.9-204.6,5L700.3,489.8L406.8,179.6c-54.9-58.1-146.5-60.6-204.6-5.6
	s-60.6,146.5-5.6,204.6l303.9,321.1l-304.9,320.1c-55.1,57.9-52.9,149.5,5,204.6c28,26.6,63.8,39.9,99.6,39.9
	c38.3,0.1,76.6-15,105.1-44.9l294.5-309.2l293.5,310.2c28.4,30,66.6,45.2,104.9,45.2c35.8,0.1,71.6-13.1,99.7-39.6
	c58.1-54.9,60.6-146.5,5.6-204.6L899.6,700.3l304.9-320.1C1259.6,322.3,1257.4,230.7,1199.5,175.6z"/>
</svg>
